<?xml version="1.0" encoding="utf-8"?>
<!-- Generator: Adobe Illustrator 26.0.1, SVG Export Plug-In . SVG Version: 6.00 Build 0)  -->
<svg version="1.1" id="Calque_1" xmlns="http://www.w3.org/2000/svg" xmlns:xlink="http://www.w3.org/1999/xlink" x="0px" y="0px"
	 viewBox="0 0 80 50" style="enable-background:new 0 0 80 50;" xml:space="preserve">
<style type="text/css">
	.st0{fill:#A68A56;}
</style>
<g>
	<path class="st0" d="M55.54,0.22c-6.08,0-11.65,2.23-15.93,5.92c-5.22,4.49-8.52,11.14-8.52,18.54c0,7.77,3.64,14.7,9.31,19.19
		c4.17,3.3,9.43,5.27,15.15,5.27C69.03,49.13,80,38.16,80,24.68S69.03,0.22,55.54,0.22z M55.54,45.7c-4.76,0-9.16-1.59-12.69-4.27
		c0.37-0.43,0.73-0.87,1.08-1.32c0.34-0.45,0.67-0.92,0.98-1.39c2.53-3.85,4-8.45,4-13.4c0-5.3-1.7-10.22-4.58-14.23
		c-0.33-0.46-0.68-0.91-1.04-1.35c-0.36-0.44-0.74-0.86-1.13-1.27c3.64-3.01,8.3-4.82,13.38-4.82c11.59,0,21.03,9.43,21.03,21.03
		S67.14,45.7,55.54,45.7z"/>
	<path class="st0" d="M27.68,24.68c0-8.11,3.48-15.42,9.03-20.52c-3.6-2.09-7.79-3.29-12.25-3.29C10.97,0.87,0,11.84,0,25.32
		c0,13.49,10.97,24.46,24.46,24.46c4.82,0,9.32-1.4,13.12-3.82C31.52,40.84,27.68,33.2,27.68,24.68z"/>
</g>
</svg>
